<?xml version="1.0" encoding="utf-8"?>
<!-- Generator: Adobe Illustrator 26.5.0, SVG Export Plug-In . SVG Version: 6.00 Build 0)  -->
<svg version="1.1" id="Layer_1" xmlns="http://www.w3.org/2000/svg" xmlns:xlink="http://www.w3.org/1999/xlink" x="0px" y="0px"
	 viewBox="0 0 300 300" style="enable-background:new 0 0 300 300;" xml:space="preserve">
<style type="text/css">
	.st0{fill:#2563EB;}
	.st1{fill:#FFFFFF;}
</style>
<path class="st0" d="M266.3,297H33.7C16.7,297,3,283.3,3,266.3V33.7C3,16.7,16.7,3,33.7,3h232.6c17,0,30.7,13.7,30.7,30.7v232.6
	C297,283.3,283.3,297,266.3,297z"/>
<path class="st1" d="M242.3,273H57.7C40.8,273,27,259.2,27,242.3V57.7C27,40.8,40.8,27,57.7,27h184.6c16.9,0,30.7,13.8,30.7,30.7
	v184.6C273,259.2,259.2,273,242.3,273z M57.7,33.9c-13.1,0-23.8,10.7-23.8,23.8v184.6c0,13.1,10.7,23.8,23.8,23.8h184.6
	c13.1,0,23.8-10.7,23.8-23.8V57.7c0-13.1-10.7-23.8-23.8-23.8H57.7z"/>
<path class="st1" d="M134.5,132.4H52.7v-31.3c0-14.2,11.5-25.7,25.7-25.7h30.4c14.2,0,25.7,11.5,25.7,25.7V132.4z"/>
<path class="st1" d="M237,132.4h-81.8v-31.3c0-14.2,11.5-25.7,25.7-25.7h30.4c14.2,0,25.7,11.5,25.7,25.7V132.4z"/>
</svg>
